<mxfile host="app.diagrams.net" agent="Mozilla/5.0 (Macintosh; Intel Mac OS X 10_15_7) AppleWebKit/605.1.15 (KHTML, like Gecko) Version/17.5 Safari/605.1.15" version="28.2.8">
  <diagram name="Strona-1" id="thHvQgiB-3Mz82PN3MGN">
    <mxGraphModel dx="946" dy="652" grid="0" gridSize="10" guides="1" tooltips="1" connect="1" arrows="1" fold="1" page="1" pageScale="1" pageWidth="11659" pageHeight="1327" math="0" shadow="0">
      <root>
        <mxCell id="0" />
        <mxCell id="1" parent="0" />
        <mxCell id="U_4RJasZzpxuNuTDygwh-1" value="Klient&lt;div&gt;&lt;br&gt;&lt;/div&gt;" style="shape=umlActor;verticalLabelPosition=bottom;verticalAlign=top;html=1;outlineConnect=0;" vertex="1" parent="1">
          <mxGeometry x="100" y="50" width="20" height="40" as="geometry" />
        </mxCell>
        <mxCell id="U_4RJasZzpxuNuTDygwh-8" value="Aplikacja bankowa" style="rounded=0;whiteSpace=wrap;html=1;" vertex="1" parent="1">
          <mxGeometry x="240" y="40" width="120" height="60" as="geometry" />
        </mxCell>
        <mxCell id="U_4RJasZzpxuNuTDygwh-9" value="System bankowy&amp;nbsp;" style="rounded=0;whiteSpace=wrap;html=1;" vertex="1" parent="1">
          <mxGeometry x="440" y="40" width="120" height="60" as="geometry" />
        </mxCell>
        <mxCell id="U_4RJasZzpxuNuTDygwh-10" value="Operator ELIXIR" style="rounded=0;whiteSpace=wrap;html=1;" vertex="1" parent="1">
          <mxGeometry x="640" y="40" width="120" height="60" as="geometry" />
        </mxCell>
        <mxCell id="U_4RJasZzpxuNuTDygwh-11" value="" style="endArrow=none;dashed=1;html=1;dashPattern=1 3;strokeWidth=2;rounded=0;entryX=0.5;entryY=1;entryDx=0;entryDy=0;" edge="1" parent="1" target="U_4RJasZzpxuNuTDygwh-8">
          <mxGeometry width="50" height="50" relative="1" as="geometry">
            <mxPoint x="310" y="840" as="sourcePoint" />
            <mxPoint x="420" y="180" as="targetPoint" />
          </mxGeometry>
        </mxCell>
        <mxCell id="U_4RJasZzpxuNuTDygwh-12" value="" style="endArrow=none;dashed=1;html=1;dashPattern=1 3;strokeWidth=2;rounded=0;entryX=0.5;entryY=1;entryDx=0;entryDy=0;" edge="1" parent="1">
          <mxGeometry width="50" height="50" relative="1" as="geometry">
            <mxPoint x="500" y="840" as="sourcePoint" />
            <mxPoint x="499.66" y="100" as="targetPoint" />
          </mxGeometry>
        </mxCell>
        <mxCell id="U_4RJasZzpxuNuTDygwh-13" value="" style="endArrow=none;dashed=1;html=1;dashPattern=1 3;strokeWidth=2;rounded=0;entryX=0.5;entryY=1;entryDx=0;entryDy=0;" edge="1" parent="1">
          <mxGeometry width="50" height="50" relative="1" as="geometry">
            <mxPoint x="710" y="830" as="sourcePoint" />
            <mxPoint x="710" y="100" as="targetPoint" />
          </mxGeometry>
        </mxCell>
        <mxCell id="U_4RJasZzpxuNuTDygwh-14" value="" style="endArrow=none;dashed=1;html=1;dashPattern=1 3;strokeWidth=2;rounded=0;entryX=0.5;entryY=1;entryDx=0;entryDy=0;" edge="1" parent="1">
          <mxGeometry width="50" height="50" relative="1" as="geometry">
            <mxPoint x="100" y="840" as="sourcePoint" />
            <mxPoint x="109.5" y="100" as="targetPoint" />
          </mxGeometry>
        </mxCell>
        <mxCell id="U_4RJasZzpxuNuTDygwh-17" value="" style="endArrow=classic;html=1;rounded=0;" edge="1" parent="1">
          <mxGeometry width="50" height="50" relative="1" as="geometry">
            <mxPoint x="110" y="150" as="sourcePoint" />
            <mxPoint x="300" y="150" as="targetPoint" />
          </mxGeometry>
        </mxCell>
        <mxCell id="U_4RJasZzpxuNuTDygwh-18" value="&lt;span style=&quot;text-align: start; caret-color: rgb(0, 0, 0); color: rgb(0, 0, 0);&quot;&gt;&lt;font style=&quot;font-size: 9px;&quot;&gt;Wprowadź dane przelewu (IBAN, kwota, tytuł)&lt;/font&gt;&lt;/span&gt;" style="text;html=1;whiteSpace=wrap;strokeColor=none;fillColor=none;align=center;verticalAlign=middle;rounded=0;" vertex="1" parent="1">
          <mxGeometry x="110" y="120" width="190" height="30" as="geometry" />
        </mxCell>
        <mxCell id="U_4RJasZzpxuNuTDygwh-20" value="" style="endArrow=classic;html=1;rounded=0;" edge="1" parent="1">
          <mxGeometry width="50" height="50" relative="1" as="geometry">
            <mxPoint x="300" y="160" as="sourcePoint" />
            <mxPoint x="500" y="160" as="targetPoint" />
          </mxGeometry>
        </mxCell>
        <mxCell id="U_4RJasZzpxuNuTDygwh-21" value="POST /transfer" style="text;html=1;whiteSpace=wrap;strokeColor=none;fillColor=none;align=center;verticalAlign=middle;rounded=0;" vertex="1" parent="1">
          <mxGeometry x="330" y="130" width="140" height="30" as="geometry" />
        </mxCell>
        <mxCell id="U_4RJasZzpxuNuTDygwh-25" value="&lt;font style=&quot;font-size: 9px;&quot;&gt;&lt;font&gt;sprawdź saldo&amp;nbsp;&lt;/font&gt;&lt;span style=&quot;text-align: start; caret-color: rgb(0, 0, 0); color: rgb(0, 0, 0);&quot;&gt;BR-03&lt;/span&gt;&lt;/font&gt;" style="text;html=1;whiteSpace=wrap;strokeColor=none;fillColor=none;align=center;verticalAlign=middle;rounded=0;" vertex="1" parent="1">
          <mxGeometry x="540" y="180" width="110" height="30" as="geometry" />
        </mxCell>
        <mxCell id="U_4RJasZzpxuNuTDygwh-26" value="" style="endArrow=classic;html=1;rounded=1;curved=0;" edge="1" parent="1">
          <mxGeometry width="50" height="50" relative="1" as="geometry">
            <mxPoint x="500" y="180" as="sourcePoint" />
            <mxPoint x="500" y="210" as="targetPoint" />
            <Array as="points">
              <mxPoint x="540" y="180" />
              <mxPoint x="540" y="190" />
              <mxPoint x="540" y="210" />
            </Array>
          </mxGeometry>
        </mxCell>
        <mxCell id="U_4RJasZzpxuNuTDygwh-27" value="" style="endArrow=classic;html=1;rounded=1;dashed=1;curved=0;" edge="1" parent="1">
          <mxGeometry width="50" height="50" relative="1" as="geometry">
            <mxPoint x="500" y="230" as="sourcePoint" />
            <mxPoint x="500" y="250" as="targetPoint" />
            <Array as="points">
              <mxPoint x="540" y="230" />
              <mxPoint x="540" y="240" />
              <mxPoint x="540" y="250" />
            </Array>
          </mxGeometry>
        </mxCell>
        <mxCell id="U_4RJasZzpxuNuTDygwh-28" value="&lt;font style=&quot;font-size: 9px;&quot;&gt;saldo &amp;nbsp;wystarczające&lt;/font&gt;&lt;div&gt;&lt;br&gt;&lt;/div&gt;" style="text;html=1;whiteSpace=wrap;strokeColor=none;fillColor=none;align=center;verticalAlign=middle;rounded=0;" vertex="1" parent="1">
          <mxGeometry x="540" y="230" width="110" height="30" as="geometry" />
        </mxCell>
        <mxCell id="U_4RJasZzpxuNuTDygwh-40" value="" style="endArrow=classic;html=1;rounded=0;" edge="1" parent="1">
          <mxGeometry width="50" height="50" relative="1" as="geometry">
            <mxPoint x="505" y="374.58" as="sourcePoint" />
            <mxPoint x="715" y="374.58" as="targetPoint" />
          </mxGeometry>
        </mxCell>
        <mxCell id="U_4RJasZzpxuNuTDygwh-41" value="&lt;font style=&quot;font-size: 9px;&quot;&gt;wyślij przelew&lt;/font&gt;" style="text;html=1;whiteSpace=wrap;strokeColor=none;fillColor=none;align=center;verticalAlign=middle;rounded=0;" vertex="1" parent="1">
          <mxGeometry x="580" y="350" width="60" height="30" as="geometry" />
        </mxCell>
        <mxCell id="U_4RJasZzpxuNuTDygwh-42" value="" style="endArrow=classic;html=1;rounded=0;dashed=1;" edge="1" parent="1">
          <mxGeometry width="50" height="50" relative="1" as="geometry">
            <mxPoint x="705" y="410" as="sourcePoint" />
            <mxPoint x="495" y="410" as="targetPoint" />
          </mxGeometry>
        </mxCell>
        <mxCell id="U_4RJasZzpxuNuTDygwh-43" value="&lt;font style=&quot;font-size: 9px;&quot;&gt;potwierdzenie / status&lt;/font&gt;" style="text;html=1;whiteSpace=wrap;strokeColor=none;fillColor=none;align=center;verticalAlign=middle;rounded=0;" vertex="1" parent="1">
          <mxGeometry x="555" y="380" width="110" height="30" as="geometry" />
        </mxCell>
        <mxCell id="U_4RJasZzpxuNuTDygwh-44" value="" style="endArrow=classic;html=1;rounded=0;" edge="1" parent="1">
          <mxGeometry width="50" height="50" relative="1" as="geometry">
            <mxPoint x="500" y="448.17" as="sourcePoint" />
            <mxPoint x="300" y="448.17" as="targetPoint" />
          </mxGeometry>
        </mxCell>
        <mxCell id="U_4RJasZzpxuNuTDygwh-45" value="&lt;div&gt;&lt;font style=&quot;font-size: 9px;&quot;&gt;zaktualizuj saldo i limiti wyświetl potwierdzenie&lt;/font&gt;&lt;/div&gt;&lt;div&gt;&lt;br&gt;&lt;/div&gt;" style="text;html=1;whiteSpace=wrap;strokeColor=none;fillColor=none;align=center;verticalAlign=middle;rounded=0;" vertex="1" parent="1">
          <mxGeometry x="320" y="419" width="170" height="30" as="geometry" />
        </mxCell>
        <mxCell id="U_4RJasZzpxuNuTDygwh-46" value="" style="endArrow=classic;html=1;rounded=0;dashed=1;" edge="1" parent="1">
          <mxGeometry width="50" height="50" relative="1" as="geometry">
            <mxPoint x="305" y="489" as="sourcePoint" />
            <mxPoint x="110" y="489" as="targetPoint" />
          </mxGeometry>
        </mxCell>
        <mxCell id="U_4RJasZzpxuNuTDygwh-47" value="&lt;font style=&quot;font-size: 9px;&quot;&gt;komunikat o udanej transakcji&lt;/font&gt;" style="text;html=1;whiteSpace=wrap;strokeColor=none;fillColor=none;align=center;verticalAlign=middle;rounded=0;" vertex="1" parent="1">
          <mxGeometry x="137" y="453" width="130" height="30" as="geometry" />
        </mxCell>
        <mxCell id="U_4RJasZzpxuNuTDygwh-48" value="" style="endArrow=classic;html=1;rounded=1;dashed=1;curved=0;" edge="1" parent="1">
          <mxGeometry width="50" height="50" relative="1" as="geometry">
            <mxPoint x="500" y="330" as="sourcePoint" />
            <mxPoint x="500" y="350" as="targetPoint" />
            <Array as="points">
              <mxPoint x="540" y="330" />
              <mxPoint x="540" y="340" />
              <mxPoint x="540" y="350" />
            </Array>
          </mxGeometry>
        </mxCell>
        <mxCell id="U_4RJasZzpxuNuTDygwh-50" value="&lt;font style=&quot;font-size: 9px;&quot;&gt;saldo nie wystarczające&lt;/font&gt;" style="text;html=1;whiteSpace=wrap;strokeColor=none;fillColor=none;align=center;verticalAlign=middle;rounded=0;" vertex="1" parent="1">
          <mxGeometry x="518" y="669" width="170" height="30" as="geometry" />
        </mxCell>
        <mxCell id="U_4RJasZzpxuNuTDygwh-51" value="" style="endArrow=classic;html=1;rounded=0;dashed=1;" edge="1" parent="1">
          <mxGeometry width="50" height="50" relative="1" as="geometry">
            <mxPoint x="505" y="600" as="sourcePoint" />
            <mxPoint x="295" y="600" as="targetPoint" />
          </mxGeometry>
        </mxCell>
        <mxCell id="U_4RJasZzpxuNuTDygwh-53" value="&lt;font style=&quot;font-size: 9px;&quot;&gt;komunikat &quot;Limit przekroczony&quot;&lt;/font&gt;" style="text;html=1;whiteSpace=wrap;strokeColor=none;fillColor=none;align=center;verticalAlign=middle;rounded=0;" vertex="1" parent="1">
          <mxGeometry x="330" y="570" width="150" height="30" as="geometry" />
        </mxCell>
        <mxCell id="U_4RJasZzpxuNuTDygwh-54" value="" style="endArrow=classic;html=1;rounded=0;" edge="1" parent="1">
          <mxGeometry width="50" height="50" relative="1" as="geometry">
            <mxPoint x="303" y="628" as="sourcePoint" />
            <mxPoint x="113" y="628" as="targetPoint" />
          </mxGeometry>
        </mxCell>
        <mxCell id="U_4RJasZzpxuNuTDygwh-55" value="&lt;font style=&quot;font-size: 9px;&quot;&gt;komunikat błędu&lt;/font&gt;" style="text;html=1;whiteSpace=wrap;strokeColor=none;fillColor=none;align=center;verticalAlign=middle;rounded=0;" vertex="1" parent="1">
          <mxGeometry x="163" y="598" width="100" height="30" as="geometry" />
        </mxCell>
        <mxCell id="U_4RJasZzpxuNuTDygwh-56" value="&lt;span style=&quot;text-align: start; caret-color: rgb(0, 0, 0); color: rgb(0, 0, 0); font-size: medium;&quot;&gt;alt&lt;/span&gt;" style="shape=umlFrame;whiteSpace=wrap;html=1;pointerEvents=0;" vertex="1" parent="1">
          <mxGeometry x="40" y="220" width="750" height="600" as="geometry" />
        </mxCell>
        <mxCell id="U_4RJasZzpxuNuTDygwh-60" value="alt" style="shape=umlFrame;whiteSpace=wrap;html=1;pointerEvents=0;" vertex="1" parent="1">
          <mxGeometry x="60" y="275" width="710" height="378" as="geometry" />
        </mxCell>
        <mxCell id="U_4RJasZzpxuNuTDygwh-61" value="" style="endArrow=classic;html=1;rounded=1;curved=0;" edge="1" parent="1">
          <mxGeometry width="50" height="50" relative="1" as="geometry">
            <mxPoint x="500" y="290" as="sourcePoint" />
            <mxPoint x="500" y="320" as="targetPoint" />
            <Array as="points">
              <mxPoint x="540" y="290" />
              <mxPoint x="540" y="300" />
              <mxPoint x="540" y="320" />
            </Array>
          </mxGeometry>
        </mxCell>
        <mxCell id="U_4RJasZzpxuNuTDygwh-63" value="&lt;span style=&quot;font-size: 9px;&quot;&gt;sprawdź limit (BR-02)&lt;/span&gt;" style="text;html=1;whiteSpace=wrap;strokeColor=none;fillColor=none;align=center;verticalAlign=middle;rounded=0;" vertex="1" parent="1">
          <mxGeometry x="550" y="290" width="102" height="30" as="geometry" />
        </mxCell>
        <mxCell id="U_4RJasZzpxuNuTDygwh-64" value="&lt;font style=&quot;font-size: 9px;&quot;&gt;&lt;font&gt;limit wystarczając&lt;/font&gt;y&lt;/font&gt;" style="text;html=1;whiteSpace=wrap;strokeColor=none;fillColor=none;align=center;verticalAlign=middle;rounded=0;" vertex="1" parent="1">
          <mxGeometry x="530" y="320" width="110" height="30" as="geometry" />
        </mxCell>
        <mxCell id="U_4RJasZzpxuNuTDygwh-65" value="" style="endArrow=classic;html=1;rounded=1;dashed=1;curved=0;" edge="1" parent="1">
          <mxGeometry width="50" height="50" relative="1" as="geometry">
            <mxPoint x="500" y="556" as="sourcePoint" />
            <mxPoint x="500" y="576" as="targetPoint" />
            <Array as="points">
              <mxPoint x="540" y="556" />
              <mxPoint x="540" y="566" />
              <mxPoint x="540" y="576" />
            </Array>
          </mxGeometry>
        </mxCell>
        <mxCell id="U_4RJasZzpxuNuTDygwh-66" value="&lt;font style=&quot;font-size: 9px;&quot;&gt;limit niewystarczajacy&lt;/font&gt;" style="text;html=1;whiteSpace=wrap;strokeColor=none;fillColor=none;align=center;verticalAlign=middle;rounded=0;" vertex="1" parent="1">
          <mxGeometry x="550" y="546" width="120" height="30" as="geometry" />
        </mxCell>
        <mxCell id="U_4RJasZzpxuNuTDygwh-67" value="" style="endArrow=none;endFill=0;endSize=12;html=1;rounded=0;exitX=0.004;exitY=0.619;exitDx=0;exitDy=0;exitPerimeter=0;entryX=0.998;entryY=0.625;entryDx=0;entryDy=0;entryPerimeter=0;" edge="1" parent="1" source="U_4RJasZzpxuNuTDygwh-60" target="U_4RJasZzpxuNuTDygwh-60">
          <mxGeometry width="160" relative="1" as="geometry">
            <mxPoint x="340" y="450" as="sourcePoint" />
            <mxPoint x="500" y="450" as="targetPoint" />
            <Array as="points">
              <mxPoint x="420" y="514" />
            </Array>
          </mxGeometry>
        </mxCell>
        <mxCell id="U_4RJasZzpxuNuTDygwh-69" value="" style="endArrow=classic;html=1;rounded=0;" edge="1" parent="1">
          <mxGeometry width="50" height="50" relative="1" as="geometry">
            <mxPoint x="503" y="708" as="sourcePoint" />
            <mxPoint x="303" y="708" as="targetPoint" />
          </mxGeometry>
        </mxCell>
        <mxCell id="U_4RJasZzpxuNuTDygwh-70" value="&lt;font style=&quot;font-size: 9px;&quot;&gt;Brak środków na koncie&lt;/font&gt;" style="text;html=1;whiteSpace=wrap;strokeColor=none;fillColor=none;align=center;verticalAlign=middle;rounded=0;" vertex="1" parent="1">
          <mxGeometry x="337.5" y="683" width="125" height="30" as="geometry" />
        </mxCell>
        <mxCell id="U_4RJasZzpxuNuTDygwh-71" value="" style="endArrow=classic;html=1;rounded=1;dashed=1;curved=0;" edge="1" parent="1">
          <mxGeometry width="50" height="50" relative="1" as="geometry">
            <mxPoint x="500" y="675" as="sourcePoint" />
            <mxPoint x="500" y="695" as="targetPoint" />
            <Array as="points">
              <mxPoint x="540" y="675" />
              <mxPoint x="540" y="685" />
              <mxPoint x="540" y="695" />
            </Array>
          </mxGeometry>
        </mxCell>
        <mxCell id="U_4RJasZzpxuNuTDygwh-73" value="" style="endArrow=classic;html=1;rounded=0;dashed=1;" edge="1" parent="1">
          <mxGeometry width="50" height="50" relative="1" as="geometry">
            <mxPoint x="300" y="743" as="sourcePoint" />
            <mxPoint x="105" y="743" as="targetPoint" />
          </mxGeometry>
        </mxCell>
        <mxCell id="U_4RJasZzpxuNuTDygwh-74" value="&lt;font style=&quot;font-size: 9px;&quot;&gt;&amp;nbsp;komunikat błędu&lt;/font&gt;" style="text;html=1;whiteSpace=wrap;strokeColor=none;fillColor=none;align=center;verticalAlign=middle;rounded=0;" vertex="1" parent="1">
          <mxGeometry x="158" y="710" width="94" height="30" as="geometry" />
        </mxCell>
      </root>
    </mxGraphModel>
  </diagram>
</mxfile>
